<svg width="70" height="126" viewBox="0 0 70 126" fill="none" xmlns="http://www.w3.org/2000/svg">
<path d="M6.62282 44.2183C6.31276 44.2183 6.00554 44.2273 5.70021 44.2415C2.96292 49.867 1.22871 55.6623 1.03865 62.0432C0.920546 66.0044 1.07013 69.9763 1.52836 73.9136C1.87795 76.9174 2.37026 79.8703 3.69452 82.5591C4.88151 82.7825 6.10471 82.9044 7.35726 82.9044C18.1303 82.9044 26.8636 74.2442 26.8636 63.5611C26.8636 52.8787 17.3959 44.2183 6.62282 44.2183Z" fill="#010002" stroke="black" stroke-miterlimit="10"/>
<path d="M18.2392 22.0208C19.3585 10.7625 17.4475 1.35534 13.9712 1.00978C10.495 0.664448 6.76977 9.51089 5.65095 20.7696C4.53189 32.0279 6.44267 41.4348 9.9189 41.7804C13.3951 42.126 17.1201 33.2793 18.2392 22.0208Z" fill="url(#paint0_linear_266_273)" stroke="#E7C321" stroke-miterlimit="10"/>
<path d="M18.222 104.302C16.8462 93.0723 12.9202 84.3125 9.45252 84.7376C5.98505 85.1625 4.28965 94.6108 5.66552 105.84C7.04138 117.07 10.9678 125.83 14.4353 125.405C17.9032 124.98 19.5981 115.532 18.222 104.302Z" fill="url(#paint1_linear_266_273)" stroke="#E7C321" stroke-miterlimit="10"/>
<path d="M41.1474 38.4544C49.0596 30.3671 53.449 21.8307 50.9519 19.3874C48.4547 16.9445 40.0165 21.5201 32.1045 29.6078C24.1925 37.6954 19.8031 46.232 22.3002 48.6748C24.7975 51.1182 33.2356 46.542 41.1474 38.4544Z" fill="url(#paint2_linear_266_273)" stroke="#E7C321" stroke-miterlimit="10"/>
<path d="M41.1474 38.4546C49.0596 30.3672 53.449 21.8308 50.9519 19.3875C48.4547 16.9446 40.0165 21.5203 32.1045 29.6079C24.1925 37.6955 19.8031 46.2321 22.3002 48.675C24.7975 51.1183 33.2356 46.5422 41.1474 38.4546Z" fill="url(#paint3_linear_266_273)" stroke="#E7C321" stroke-miterlimit="10"/>
<path d="M42.2254 87.2866C33.1873 80.4812 24.1569 77.2262 22.0556 80.017C19.9538 82.8078 25.5777 90.587 34.6159 97.3927C43.6541 104.198 52.6846 107.453 54.7859 104.662C56.8873 101.871 51.2638 94.0921 42.2254 87.2866Z" fill="url(#paint4_linear_266_273)" stroke="#E7C321" stroke-miterlimit="10"/>
<path d="M48.5063 70.3109C59.8202 70.3254 68.9954 67.5052 69.0001 64.012C69.0046 60.5185 59.8363 57.6749 48.5224 57.6605C37.2085 57.6458 28.0331 60.4662 28.0283 63.9592C28.0241 67.4527 37.1924 70.2963 48.5063 70.3109Z" fill="url(#paint5_linear_266_273)" stroke="#E7C321" stroke-miterlimit="10"/>
<defs>
<linearGradient id="paint0_linear_266_273" x1="5.33087" y1="21.3951" x2="18.559" y2="21.3951" gradientUnits="userSpaceOnUse">
<stop stop-color="#EFCB00"/>
<stop offset="1" stop-color="#CD703C"/>
</linearGradient>
<linearGradient id="paint1_linear_266_273" x1="5.18767" y1="105.071" x2="18.7001" y2="105.071" gradientUnits="userSpaceOnUse">
<stop stop-color="#EFCB00"/>
<stop offset="0.8522" stop-color="#CD6F3C"/>
<stop offset="1" stop-color="#CE743D"/>
</linearGradient>
<linearGradient id="paint2_linear_266_273" x1="21.5996" y1="34.0313" x2="51.6524" y2="34.0313" gradientUnits="userSpaceOnUse">
<stop stop-color="#EFCB00"/>
<stop offset="0.4778" stop-color="#CF753C"/>
<stop offset="1" stop-color="#CD6F3C"/>
</linearGradient>
<linearGradient id="paint3_linear_266_273" x1="21.5996" y1="34.0314" x2="51.6524" y2="34.0314" gradientUnits="userSpaceOnUse">
<stop stop-color="#EFCB00"/>
<stop offset="0.4778" stop-color="#CF753C"/>
<stop offset="1" stop-color="#CD6F3C"/>
</linearGradient>
<linearGradient id="paint4_linear_266_273" x1="21.6154" y1="92.3396" x2="55.2262" y2="92.3396" gradientUnits="userSpaceOnUse">
<stop stop-color="#EFCB00"/>
<stop offset="0.8522" stop-color="#CD6F3C"/>
<stop offset="1" stop-color="#CE743D"/>
</linearGradient>
<linearGradient id="paint5_linear_266_273" x1="28.0283" y1="63.9856" x2="69" y2="63.9856" gradientUnits="userSpaceOnUse">
<stop stop-color="#EFCB00"/>
<stop offset="1" stop-color="#CD6F3C"/>
</linearGradient>
</defs>
</svg>
